<svg width="466" height="441" viewBox="0 0 466 441" fill="none" xmlns="http://www.w3.org/2000/svg">
<path d="M190.398 402.582C91.7594 402.582 11.7967 322.493 11.7967 223.697C11.7967 124.902 91.7594 44.8123 190.398 44.8123C289.038 44.8123 369 124.902 369 223.697C369 322.493 289.038 402.582 190.398 402.582Z" stroke="url(#paint0_linear)" stroke-width="3"/>
<path d="M190.398 263.449C91.7594 263.449 11.7967 245.652 11.7967 223.697C11.7967 201.743 91.7594 183.945 190.398 183.945C289.038 183.945 369 201.743 369 223.697C369 245.652 289.038 263.449 190.398 263.449Z" stroke="url(#paint1_linear)" stroke-width="3"/>
<path d="M190.399 55.6243C184.436 55.6243 179.602 50.7836 179.602 44.8122C179.602 38.8408 184.436 34 190.399 34C196.361 34 201.195 38.8408 201.195 44.8122C201.195 50.7836 196.361 55.6243 190.399 55.6243Z" fill="#EE538B" stroke="white" stroke-width="1.6"/>
<path d="M11.7964 234.509C5.83365 234.509 0.999929 229.669 0.999929 223.697C0.999929 217.726 5.83365 212.885 11.7964 212.885C17.7591 212.885 22.5928 217.726 22.5928 223.697C22.5928 229.669 17.7591 234.509 11.7964 234.509Z" fill="#6E32C9" stroke="white" stroke-width="1.6"/>
<path d="M190.399 413.394C184.436 413.394 179.602 408.553 179.602 402.582C179.602 396.611 184.436 391.77 190.399 391.77C196.361 391.77 201.195 396.611 201.195 402.582C201.195 408.553 196.361 413.394 190.399 413.394Z" fill="#30B0FF" stroke="white" stroke-width="1.6"/>
<path d="M191.39 83.5706V224.691" stroke="#0072C3" stroke-width="2" stroke-linecap="square"/>
<path d="M192.001 224.691H340.836" stroke="#0072C3" stroke-width="2" stroke-linecap="square"/>
<rect x="285" y="129" width="181" height="30" fill="white"/>
<path d="M302.152 150V148.288H299.624V138.832H296.408L293.64 142.128L294.952 143.232L297.384 140.352H297.528V148.288H294.456V150H302.152ZM305.682 152.208L310.946 137.84H309.106L303.842 152.208H305.682ZM318.316 150L321.612 138.832H319.852L318.156 144.736L317.132 148.496H317.02L316.06 144.736L315.212 141.744H312.476V143.44H313.852L315.788 150H318.316ZM330.581 148.24H324.997L327.429 146.272C329.045 144.976 330.277 143.776 330.277 141.952C330.277 140.032 328.917 138.64 326.533 138.64C324.213 138.64 322.997 139.952 322.517 141.424L324.341 142.112C324.613 141.184 325.189 140.448 326.357 140.448C327.413 140.448 328.053 141.024 328.053 142.08V142.24C328.053 143.184 327.477 143.968 326.293 144.992L322.709 148.048V150H330.581V148.24ZM343.897 145.024C343.897 148.144 345.417 150.864 347.225 152.208H349.273C347.337 150.832 345.657 148.496 345.657 145.792V144.256C345.657 141.552 347.337 139.216 349.273 137.84H347.225C345.417 139.184 343.897 141.904 343.897 145.024ZM356.243 152.208V137.84H354.483V152.208H356.243ZM364.956 150.192C367.868 150.192 369.18 148.064 369.18 144.416C369.18 140.768 367.868 138.64 364.956 138.64C362.044 138.64 360.732 140.768 360.732 144.416C360.732 148.064 362.044 150.192 364.956 150.192ZM364.956 148.512C363.42 148.512 362.86 147.328 362.86 145.408V143.424C362.86 141.504 363.42 140.32 364.956 140.32C366.492 140.32 367.052 141.504 367.052 143.424V145.408C367.052 147.328 366.492 148.512 364.956 148.512ZM364.956 145.36C365.692 145.36 365.948 145.024 365.948 144.592V144.24C365.948 143.808 365.692 143.472 364.956 143.472C364.22 143.472 363.964 143.808 363.964 144.24V144.592C363.964 145.024 364.22 145.36 364.956 145.36ZM371.11 149.856L377.99 146.08V144.16L371.11 140.384V142.336L376.134 145.056V145.184L371.11 147.904V149.856ZM394.634 149.008V145.936H397.546V144.288H394.634V141.216H392.842V144.288H389.93V145.936H392.842V149.008H394.634ZM413.437 140.464C414.397 140.464 414.749 140 414.749 139.424V139.04C414.749 138.464 414.397 138 413.437 138C412.477 138 412.125 138.464 412.125 139.04V139.424C412.125 140 412.477 140.464 413.437 140.464ZM409.693 150H416.989V148.384H414.461V141.744H409.693V143.36H412.413V148.384H409.693V150ZM423.399 152.208V137.84H421.639V152.208H423.399ZM436.465 150V148.288H433.937V138.832H430.721L427.953 142.128L429.265 143.232L431.697 140.352H431.841V148.288H428.769V150H436.465ZM438.266 149.856L445.146 146.08V144.16L438.266 140.384V142.336L443.29 145.056V145.184L438.266 147.904V149.856ZM453.172 145.024C453.172 141.904 451.652 139.184 449.844 137.84H447.796C449.732 139.216 451.412 141.552 451.412 144.256V145.792C451.412 148.496 449.732 150.832 447.796 152.208H449.844C451.652 150.864 453.172 148.144 453.172 145.024Z" fill="#13171A"/>
<path d="M180.68 19.208V4.84H178.92V19.208H180.68ZM189.394 17.192C192.306 17.192 193.618 15.064 193.618 11.416C193.618 7.768 192.306 5.64 189.394 5.64C186.482 5.64 185.17 7.768 185.17 11.416C185.17 15.064 186.482 17.192 189.394 17.192ZM189.394 15.512C187.858 15.512 187.298 14.328 187.298 12.408V10.424C187.298 8.504 187.858 7.32 189.394 7.32C190.93 7.32 191.49 8.504 191.49 10.424V12.408C191.49 14.328 190.93 15.512 189.394 15.512ZM189.394 12.36C190.13 12.36 190.386 12.024 190.386 11.592V11.24C190.386 10.808 190.13 10.472 189.394 10.472C188.658 10.472 188.402 10.808 188.402 11.24V11.592C188.402 12.024 188.658 12.36 189.394 12.36ZM195.548 16.856L202.428 13.08V11.16L195.548 7.384V9.336L200.572 12.056V12.184L195.548 14.904V16.856Z" fill="#13171A"/>
<path d="M180.68 439.208V424.84H178.92V439.208H180.68ZM193.746 437V435.288H191.218V425.832H188.002L185.234 429.128L186.546 430.232L188.978 427.352H189.122V435.288H186.05V437H193.746ZM195.548 436.856L202.428 433.08V431.16L195.548 427.384V429.336L200.572 432.056V432.184L195.548 434.904V436.856Z" fill="#13171A"/>
<defs>
<linearGradient id="paint0_linear" x1="190.398" y1="44.8123" x2="190.398" y2="397.388" gradientUnits="userSpaceOnUse">
<stop stop-color="#FA75A6"/>
<stop offset="1" stop-color="#1193E8"/>
</linearGradient>
<linearGradient id="paint1_linear" x1="190.398" y1="183.945" x2="190.398" y2="262.295" gradientUnits="userSpaceOnUse">
<stop stop-color="#FA75A6"/>
<stop offset="1" stop-color="#1193E8"/>
</linearGradient>
</defs>
</svg>